<?xml version="1.0" encoding="utf-8"?>
<!-- Generator: Adobe Illustrator 22.0.1, SVG Export Plug-In . SVG Version: 6.00 Build 0)  -->
<svg version="1.1" id="Camada_1" xmlns="http://www.w3.org/2000/svg" xmlns:xlink="http://www.w3.org/1999/xlink" x="0px" y="0px"
	 viewBox="0 0 40 40" style="enable-background:new 0 0 40 40;" xml:space="preserve">
<path d="M5,36c-0.1,0-0.3,0-0.4-0.1C4.2,35.8,4,35.4,4,35V8.3C4,5.9,5.9,4,8.3,4h23.3C34.1,4,36,5.9,36,8.3V25
	c0,2.4-1.9,4.3-4.3,4.3H12.1l-6.4,6.4C5.5,35.9,5.3,36,5,36z M8.3,6C7,6,6,7,6,8.3v24.3l5-5c0.2-0.2,0.4-0.3,0.7-0.3h20
	c1.3,0,2.3-1,2.3-2.3V8.3C34,7,33,6,31.7,6H8.3z"/>
</svg>
