<?xml version="1.0" encoding="utf-8"?>
<!-- Generator: Adobe Illustrator 22.0.1, SVG Export Plug-In . SVG Version: 6.00 Build 0)  -->
<svg version="1.1" id="Camada_1" xmlns="http://www.w3.org/2000/svg" xmlns:xlink="http://www.w3.org/1999/xlink" x="0px" y="0px"
	 viewBox="0 0 40 40" style="enable-background:new 0 0 40 40;" xml:space="preserve">
<path d="M34.3,31.7V35c0,0.6-0.4,1-1,1s-1-0.4-1-1v-3.3c0-3.1-2.5-5.7-5.7-5.7H13.3c-3.1,0-5.7,2.5-5.7,5.7V35c0,0.6-0.4,1-1,1
	s-1-0.4-1-1v-3.3c0-4.2,3.4-7.7,7.7-7.7h13.3C30.9,24,34.3,27.4,34.3,31.7z M12.3,11.7C12.3,7.4,15.8,4,20,4s7.7,3.4,7.7,7.7
	s-3.4,7.7-7.7,7.7S12.3,15.9,12.3,11.7z M14.3,11.7c0,3.1,2.5,5.7,5.7,5.7c3.1,0,5.7-2.5,5.7-5.7C25.7,8.5,23.1,6,20,6
	C16.9,6,14.3,8.5,14.3,11.7z"/>
</svg>
