<?xml version="1.0" encoding="utf-8"?>
<!-- Generator: Adobe Illustrator 22.0.1, SVG Export Plug-In . SVG Version: 6.00 Build 0)  -->
<svg version="1.1" id="Camada_1" xmlns="http://www.w3.org/2000/svg" xmlns:xlink="http://www.w3.org/1999/xlink" x="0px" y="0px"
	 viewBox="0 0 40 40" style="enable-background:new 0 0 40 40;" xml:space="preserve">
<path d="M30.7,29.3c0.4,0.4,0.4,1,0,1.4C30.5,30.9,30.3,31,30,31s-0.5-0.1-0.7-0.3L20,21.4l-9.3,9.3C10.5,30.9,10.3,31,10,31
	s-0.5-0.1-0.7-0.3c-0.4-0.4-0.4-1,0-1.4l9.3-9.3l-9.3-9.3c-0.4-0.4-0.4-1,0-1.4s1-0.4,1.4,0l9.3,9.3l9.3-9.3c0.4-0.4,1-0.4,1.4,0
	s0.4,1,0,1.4L21.4,20L30.7,29.3z"/>
</svg>
