<?xml version="1.0" encoding="utf-8"?>
<!-- Generator: Adobe Illustrator 22.0.1, SVG Export Plug-In . SVG Version: 6.00 Build 0)  -->
<svg version="1.1" id="Camada_1" xmlns="http://www.w3.org/2000/svg" xmlns:xlink="http://www.w3.org/1999/xlink" x="0px" y="0px" viewBox="0 0 40 40" style="enable-background:new 0 0 40 40;" xml:space="preserve">
<path d="M20,34.3c-0.6,0-1-0.4-1-1V16.7c0-0.6,0.4-1,1-1s1,0.4,1,1v16.7C21,33.9,20.6,34.3,20,34.3z M31,33.3V6.7c0-0.6-0.4-1-1-1
	s-1,0.4-1,1v26.7c0,0.6,0.4,1,1,1S31,33.9,31,33.3z M11,33.3v-6.7c0-0.6-0.4-1-1-1s-1,0.4-1,1v6.7c0,0.6,0.4,1,1,1S11,33.9,11,33.3z
	"/>
</svg>
