<?xml version="1.0" encoding="utf-8"?>
<!-- Generator: Adobe Illustrator 22.0.1, SVG Export Plug-In . SVG Version: 6.00 Build 0)  -->
<svg version="1.1" id="Camada_1" xmlns="http://www.w3.org/2000/svg" xmlns:xlink="http://www.w3.org/1999/xlink" x="0px" y="0px"
	 viewBox="0 0 40 40" style="enable-background:new 0 0 40 40;" xml:space="preserve">
<path d="M15,32.3c-1.5,0-2.7,1.2-2.7,2.7s1.2,2.7,2.7,2.7s2.7-1.2,2.7-2.7S16.5,32.3,15,32.3z M15,35.7c-0.4,0-0.7-0.3-0.7-0.7
	s0.3-0.7,0.7-0.7s0.7,0.3,0.7,0.7S15.4,35.7,15,35.7z M33.3,32.3c-1.5,0-2.7,1.2-2.7,2.7s1.2,2.7,2.7,2.7c1.5,0,2.7-1.2,2.7-2.7
	S34.8,32.3,33.3,32.3z M33.3,35.7c-0.4,0-0.7-0.3-0.7-0.7s0.3-0.7,0.7-0.7c0.4,0,0.7,0.3,0.7,0.7S33.7,35.7,33.3,35.7z M39.1,9.4
	C38.9,9.1,38.6,9,38.3,9H10.8L9.3,1.5C9.2,1,8.8,0.7,8.3,0.7H1.7c-0.6,0-1,0.4-1,1s0.4,1,1,1h5.8L9,10.1c0,0,0,0.1,0,0.1l2.8,13.9
	c0.4,2,2.2,3.5,4.2,3.5c0,0,0.1,0,0.1,0h16.2c0,0,0.1,0,0.1,0c2.1,0,3.8-1.5,4.3-3.5l2.7-14C39.4,9.9,39.3,9.6,39.1,9.4z M34.7,23.8
	c-0.2,1.1-1.2,1.9-2.4,1.9H16.1c-1.1,0-2.1-0.8-2.3-1.9L11.2,11h25.9L34.7,23.8z"/>
</svg>
