<?xml version="1.0" encoding="utf-8"?>
<!-- Generator: Adobe Illustrator 22.0.1, SVG Export Plug-In . SVG Version: 6.00 Build 0)  -->
<svg version="1.1" id="Camada_1" xmlns="http://www.w3.org/2000/svg" xmlns:xlink="http://www.w3.org/1999/xlink" x="0px" y="0px"
	 viewBox="0 0 40 40" style="enable-background:new 0 0 40 40;" xml:space="preserve">
<path d="M32.7,13.3c0-7-5.7-12.7-12.7-12.7S7.3,6.3,7.3,13.3c0,4.2,2.1,8,5.3,10.3l-1.9,14.6c-0.1,0.4,0.1,0.8,0.4,1
	c0.2,0.1,0.4,0.2,0.5,0.2c0.2,0,0.4,0,0.5-0.1l7.8-4.7l7.8,4.7c0.3,0.2,0.7,0.2,1.1,0c0.3-0.2,0.5-0.6,0.4-1l-1.9-14.6
	C30.6,21.3,32.7,17.6,32.7,13.3z M9.3,13.3C9.3,7.5,14.1,2.7,20,2.7c5.9,0,10.7,4.8,10.7,10.7C30.7,19.2,25.9,24,20,24
	C14.1,24,9.3,19.2,9.3,13.3z M27.1,36.4l-6.6-3.9c-0.3-0.2-0.7-0.2-1,0l-6.6,3.9l1.6-11.7C16.2,25.5,18,26,20,26
	c2,0,3.8-0.5,5.5-1.3L27.1,36.4z"/>
</svg>
