<?xml version="1.0" encoding="utf-8"?>
<!-- Generator: Adobe Illustrator 22.0.1, SVG Export Plug-In . SVG Version: 6.00 Build 0)  -->
<svg version="1.1" id="Camada_1" xmlns="http://www.w3.org/2000/svg" xmlns:xlink="http://www.w3.org/1999/xlink" x="0px" y="0px"
	 viewBox="0 0 40 40" style="enable-background:new 0 0 40 40;" xml:space="preserve">
<path d="M16,35c0,0.6-0.4,1-1,1H8.3C5.9,36,4,34.1,4,31.7V8.3C4,5.9,5.9,4,8.3,4H15c0.6,0,1,0.4,1,1s-0.4,1-1,1H8.3C7,6,6,7,6,8.3
	v23.3C6,33,7,34,8.3,34H15C15.6,34,16,34.4,16,35z M35.9,20.4c0.1-0.2,0.1-0.5,0-0.8c-0.1-0.1-0.1-0.2-0.2-0.3L27.4,11
	c-0.4-0.4-1-0.4-1.4,0s-0.4,1,0,1.4l6.6,6.6H15c-0.6,0-1,0.4-1,1s0.4,1,1,1h17.6L26,27.6c-0.4,0.4-0.4,1,0,1.4
	c0.2,0.2,0.5,0.3,0.7,0.3s0.5-0.1,0.7-0.3l8.3-8.3C35.8,20.6,35.9,20.5,35.9,20.4z"/>
</svg>
