<?xml version="1.0" encoding="utf-8"?>
<!-- Generator: Adobe Illustrator 22.0.1, SVG Export Plug-In . SVG Version: 6.00 Build 0)  -->
<svg version="1.1" id="Camada_1" xmlns="http://www.w3.org/2000/svg" xmlns:xlink="http://www.w3.org/1999/xlink" x="0px" y="0px"
	 viewBox="0 0 40 40" style="enable-background:new 0 0 40 40;" xml:space="preserve">
<path d="M33.3,10.7h-5.7V8.3c0-2.4-1.9-4.3-4.3-4.3h-6.7c-2.4,0-4.3,1.9-4.3,4.3v2.3H6.7c-2.4,0-4.3,1.9-4.3,4.3v16.7
	c0,2.4,1.9,4.3,4.3,4.3h26.7c2.4,0,4.3-1.9,4.3-4.3V15C37.7,12.6,35.7,10.7,33.3,10.7z M14.3,8.3c0-1.3,1-2.3,2.3-2.3h6.7
	c1.3,0,2.3,1,2.3,2.3v2.3H14.3V8.3z M25.7,12.7V34H14.3V12.7H25.7z M4.3,31.7V15c0-1.3,1-2.3,2.3-2.3h5.7V34H6.7
	C5.4,34,4.3,33,4.3,31.7z M35.7,31.7c0,1.3-1,2.3-2.3,2.3h-5.7V12.7h5.7c1.3,0,2.3,1,2.3,2.3V31.7z"/>
</svg>
